# xmcd CD database file
#
# Track frame offsets:
#	150
#	20552
#	35440
#	69937
#	88355
#	104265
#	125706
#	141756
#	167184
#
# Disc length: 2438 seconds
#
# Revision: 0
# Processed by: cddbd v1.5.1PL2 Copyright (c) Steve Scherf et al.
# Submitted via: CDex 1.51
#
DISCID=7d098409
DTITLE=Das Dritte Ohr - Zahltag
DYEAR=1980
DGENRE=Blues
TTITLE0=Zahltag
TTITLE1=Wenn die Sonne sinkt
TTITLE2=Rita Rita
TTITLE3=Mordwest-Stadt
TTITLE4=Maibock
TTITLE5=Kalte Wut
TTITLE6=Bleib weg
TTITLE7=Schwarzer Wurm
TTITLE8=Disco Fuzzies
EXTD=YEAR: 1980
EXTT0=
EXTT1=
EXTT2=
EXTT3=
EXTT4=
EXTT5=
EXTT6=
EXTT7=
EXTT8=
PLAYORDER=
